<svg height="512pt" viewBox="0 -51 512.001 512" width="512pt" xmlns="http://www.w3.org/2000/svg"><path d="m441.652344 401.730469h-371.304688c-34.710937 0-62.847656-28.136719-62.847656-62.84375v-294.679688c0-20.273437 16.433594-36.707031 36.707031-36.707031h423.582031c20.273438 0 36.710938 16.433594 36.710938 36.707031v294.679688c0 34.707031-28.136719 62.84375-62.847656 62.84375zm0 0" fill="#5972a5"/><path d="m114.25 338.886719v-294.679688c0-20.273437 16.4375-36.707031 36.710938-36.707031h-106.753907c-20.273437 0-36.707031 16.433594-36.707031 36.707031v294.679688c0 34.707031 28.136719 62.84375 62.847656 62.84375h106.75c-34.710937 0-62.847656-28.136719-62.847656-62.84375zm0 0" fill="#3b5a9b"/><path d="m467.792969 7.5h-423.585938c-20.273437 0-36.707031 16.433594-36.707031 36.707031v37.300781h497v-37.300781c0-20.273437-16.433594-36.707031-36.707031-36.707031zm0 0" fill="#a5b1bd"/><path d="m150.960938 7.5h-106.753907c-20.273437 0-36.707031 16.433594-36.707031 36.707031v37.300781h106.75v-37.300781c0-20.273437 16.4375-36.707031 36.710938-36.707031zm0 0" fill="#8697a6"/><path d="m347.800781 401.730469h-168.261719v-70.296875c0-29.386719 23.820313-53.210938 53.207032-53.210938h61.84375c29.386718 0 53.210937 23.824219 53.210937 53.210938zm0 0" fill="#ffaa75"/><path d="m207.984375 219.378906c0 17.003906-13.785156 30.792969-30.792969 30.792969-17.007812 0-30.792968-13.789063-30.792968-30.792969 0-17.007812 13.785156-30.792968 30.792968-30.792968 17.007813 0 30.792969 13.785156 30.792969 30.792968zm0 0" fill="#ffcbbe"/><path d="m380.9375 219.378906c0 17.003906-13.785156 30.792969-30.792969 30.792969-17.007812 0-30.792969-13.789063-30.792969-30.792969 0-17.007812 13.785157-30.792968 30.792969-30.792968 17.007813 0 30.792969 13.785156 30.792969 30.792968zm0 0" fill="#ffcbbe"/><path d="m263.667969 306.648438c-46.464844 0-84.132813-37.667969-84.132813-84.132813v-12.960937c0-46.464844 37.667969-84.132813 84.132813-84.132813 46.464843 0 84.132812 37.667969 84.132812 84.132813v12.960937c0 46.46875-37.667969 84.132813-84.132812 84.132813zm0 0" fill="#ffddcf"/><path d="m272.449219 150.625s19.019531 43.257812 81.316406 45.277344c6.941406.226562 11.34375-7.371094 7.640625-13.246094-3.292969-5.226562-6.589844-11.4375-8.261719-17.429688-4.035156-14.484374-20.390625-28.609374-42.070312-25.179687zm0 0" fill="#dd6642"/><path d="m311.074219 140.046875s-46.136719 62.523437-143.160157 54.746094c-8.644531-.695313-13.273437-10.402344-8.503906-17.640625 3.496094-5.308594 7.03125-12.34375 9.746094-21.570313 8.070312-27.4375 44.574219-54.066406 86.84375-49.222656 42.269531 4.839844 55.074219 33.6875 55.074219 33.6875zm0 0" fill="#e7896e"/><path d="m426.53125 361.449219h-341.0625c-8.894531 0-16.101562-7.207031-16.101562-16.101563 0-8.894531 7.207031-16.105468 16.101562-16.105468h341.0625c8.894531 0 16.101562 7.210937 16.101562 16.105468 0 8.894532-7.207031 16.101563-16.101562 16.101563zm0 0" fill="#546370"/><path d="m179.535156 329.242188h-94.066406c-8.894531 0-16.101562 7.210937-16.101562 16.105468 0 8.894532 7.207031 16.105469 16.101562 16.105469h94.066406zm0 0" fill="#ff8a98"/><path d="m203.066406 345.347656c0 12.992188-10.535156 23.527344-23.53125 23.527344-12.992187 0-23.527344-10.535156-23.527344-23.527344 0-12.996094 10.535157-23.53125 23.527344-23.53125 12.996094 0 23.53125 10.535156 23.53125 23.53125zm0 0" fill="#a4e7ff"/><path d="m78.3125 44.503906c0 8.285156-6.714844 15-15 15-8.28125 0-15-6.714844-15-15s6.71875-15 15-15c8.285156 0 15 6.714844 15 15zm0 0" fill="#fd5c6f"/><path d="m139.453125 44.503906c0 8.285156-6.71875 15-15 15-8.285156 0-15-6.714844-15-15s6.714844-15 15-15c8.28125 0 15 6.714844 15 15zm0 0" fill="#f9ee80"/><path d="m201.578125 44.503906c0 8.285156-6.71875 15-15 15-8.285156 0-15-6.714844-15-15s6.714844-15 15-15c8.28125 0 15 6.714844 15 15zm0 0" fill="#60daa8"/><path d="m311.074219 238.363281c4.144531 0 7.5-3.359375 7.5-7.5v-12.449219c0-4.144531-3.355469-7.5-7.5-7.5-4.140625 0-7.5 3.355469-7.5 7.5v12.449219c0 4.140625 3.359375 7.5 7.5 7.5zm0 0"/><path d="m216.261719 238.363281c4.140625 0 7.5-3.359375 7.5-7.5v-12.449219c0-4.144531-3.359375-7.5-7.5-7.5-4.144531 0-7.5 3.355469-7.5 7.5v12.449219c0 4.140625 3.355469 7.5 7.5 7.5zm0 0"/><path d="m263.667969 241.136719c7.140625 0 13.738281-3.5625 17.660156-9.53125 2.273437-3.460938 1.3125-8.109375-2.152344-10.386719-1.269531-.832031-6.878906-2.992188-10.386719 2.152344-1.679687 2.46875-4.125 2.765625-5.121093 2.765625-.992188 0-3.484375-.269531-5.121094-2.765625-2.277344-3.460938-6.925781-4.425782-10.386719-2.152344-3.464844 2.277344-4.425781 6.925781-2.152344 10.386719 3.921876 5.96875 10.523438 9.53125 17.660157 9.53125zm0 0"/><path d="m467.792969 0h-28.265625c-4.140625 0-7.5 3.359375-7.5 7.5 0 4.144531 3.359375 7.5 7.5 7.5h28.265625c16.105469 0 29.207031 13.101562 29.207031 29.210938v29.796874h-482v-29.796874c0-16.105469 13.101562-29.210938 29.207031-29.210938h363.394531c4.140626 0 7.5-3.359375 7.5-7.5s-3.359374-7.5-7.5-7.5h-363.394531c-24.375 0-44.207031 19.832031-44.207031 44.210938v294.675781c0 38.789062 31.558594 70.34375 70.347656 70.34375h371.308594c38.789062 0 70.34375-31.554688 70.34375-70.34375v-294.675781c0-24.378907-19.832031-44.210938-44.207031-44.210938zm-152.804688 147.140625c15.582031-1.183594 27.820313 8.921875 30.933594 20.097656 1.628906 5.847657 4.703125 12.382813 9.140625 19.417969.097656.15625-23.050781 9.253906-60.6875-20.058594 10.585938-8.242187 17.410156-15.664062 20.613281-19.457031zm40.3125 75.375s-.089843-17.085937-.230469-19.140625c3.097657-.195312 6.023438-1.269531 8.472657-3.042969 9.945312 5.382813 10.667969 17.613281 9.421875 23.710938-1.246094 6.09375-4.652344 16.046875-19.863282 18.445312 1.433594-6.429687 2.199219-13.113281 2.199219-19.972656zm-83.964843-58.191406c-29.890626 18.328125-64.480469 26.0625-102.824219 22.992187-1.878907-.148437-2.753907-1.386718-3.105469-2.113281-.296875-.605469-.863281-2.203125.269531-3.925781 4.484375-6.804688 8.074219-14.738282 10.675781-23.578125 3.515626-11.953125 13.734376-24.082031 27.328126-32.445313 12.738281-7.832031 27.507812-11.960937 42.386718-11.960937 30.425782 0 51.003906 18.742187 55.894532 25.960937-4.746094 5.285156-14.949219 15.460938-30.625 25.070313zm-108.785157 36.941406c1.511719.527344 8.109375 1.246094 9.761719 1.339844-.175781 2.3125-.277344 19.910156-.277344 19.910156 0 6.855469.765625 13.535156 2.199219 19.960937-8.625-1.117187-16.289063-7.039062-19.175781-15.839843-3.042969-9.269531.097656-19.386719 7.492187-25.371094zm24.484375 21.25s.101563-17.390625.289063-19.59375c41.90625-.636719 72.953125-14.097656 92.503906-26.210937.683594-.421876 1.359375-.847657 2.023437-1.277344 11.855469 11.460937 30.367188 23.167968 58.09375 26.855468.226563 2.410157.355469 20.230469.355469 20.230469 0 42.253907-34.378906 76.628907-76.632812 76.628907-42.253907 0-76.632813-34.375-76.632813-76.632813zm19.417969 71.519531c15.691406 12.578125 35.585937 20.113282 57.214844 20.113282 21.621093 0 41.515625-7.53125 57.207031-20.105469 9.445312 6.632812 15.972656 16.523437 18.382812 27.699219h-139.613281c-2.90625-2.480469-6.273437-4.429688-9.953125-5.710938 3.15625-8.878906 8.976563-16.539062 16.761719-21.996094zm-26.917969 35.28125c8.839844 0 16.03125 7.191406 16.03125 16.03125 0 8.835938-7.191406 16.027344-16.03125 16.027344-8.835937 0-16.027344-7.191406-16.027344-16.027344 0-8.839844 7.191407-16.03125 16.027344-16.03125zm7.5 64.914063v-18.777344c13.5-3.363281 23.53125-15.582031 23.53125-30.105469 0-2.984375-.433594-5.871094-1.222656-8.605468h217.1875c4.742188 0 8.601562 3.859374 8.601562 8.605468 0 4.742188-3.859374 8.605469-8.601562 8.605469h-194.199219c-4.144531 0-7.5 3.355469-7.5 7.5 0 4.140625 3.355469 7.5 7.5 7.5h107.96875v25.277344zm254.617188 0h-86.351563v-25.28125h71.230469c13.015625 0 23.601562-10.585938 23.601562-23.601563s-10.585937-23.605468-23.601562-23.605468h-72.011719c-2.429687-15.148438-10.492187-28.765626-22.578125-38.179688 6.8125-7.613281 12.375-16.363281 16.359375-25.929688 28.125-.824218 37.316407-20.566406 39.363281-30.589843 2.046876-10.019531.023438-29.488281-17.433593-40.289063-.089844-2.820312-.914063-5.617187-2.480469-8.097656-3.605469-5.722656-6.15625-11.0625-7.378906-15.445312-2.566406-9.207032-8.929688-17.777344-17.457032-23.515626-5.929687-3.992187-15.3125-8.261718-27.746093-7.609374-6.03125-9.367188-22.746094-29.105469-58.3125-33.179688-21.183594-2.425781-42.855469 2.394531-61.03125 13.570312-16.917969 10.402344-29.261719 25.34375-33.863281 40.988282-2.179688 7.414062-5.144532 13.992187-8.8125 19.558594-3.5625 5.40625-4.132813 12.035156-1.601563 17.914062-11.019531 9.964844-15.519531 25.8125-10.738281 40.378906 5.285156 16.109375 19.867187 24.707032 38.226562 26.308594 3.984375 9.570312 9.542969 18.320312 16.359375 25.933594-10.160156 7.894531-17.496093 18.765625-21.023437 31.195312-5.640625.949219-10.765625 3.425782-14.941406 6.988282h-73.960938c-13.015625 0-23.601562 10.589843-23.601562 23.605468s10.585937 23.601563 23.601562 23.601563h73.960938c3.589843 3.066406 7.886718 5.328125 12.605468 6.503906v18.777344h-101.6875c-30.519531 0-55.347656-24.828125-55.347656-55.34375v-249.878907h482v249.878907c0 30.515625-24.828125 55.34375-55.347656 55.34375zm-291.921875-40.28125h-64.261719c-4.742188 0-8.601562-3.859375-8.601562-8.601563 0-4.746094 3.859374-8.605468 8.601562-8.605468h64.261719c-2.492188 8.605468-.789063 14.472656 0 17.207031zm0 0"/><path d="m40.8125 44.503906c0 12.40625 10.09375 22.5 22.5 22.5s22.5-10.09375 22.5-22.5-10.09375-22.5-22.5-22.5-22.5 10.09375-22.5 22.5zm30 0c0 4.136719-3.363281 7.5-7.5 7.5s-7.5-3.363281-7.5-7.5c0-4.132812 3.363281-7.5 7.5-7.5s7.5 3.367188 7.5 7.5zm0 0"/><path d="m101.953125 44.503906c0 12.40625 10.09375 22.5 22.5 22.5s22.5-10.09375 22.5-22.5-10.09375-22.5-22.5-22.5-22.5 10.09375-22.5 22.5zm30 0c0 4.136719-3.363281 7.5-7.5 7.5s-7.5-3.363281-7.5-7.5c0-4.132812 3.363281-7.5 7.5-7.5s7.5 3.367188 7.5 7.5zm0 0"/><path d="m164.078125 44.503906c0 12.40625 10.09375 22.5 22.5 22.5s22.5-10.09375 22.5-22.5-10.09375-22.5-22.5-22.5-22.5 10.09375-22.5 22.5zm30 0c0 4.136719-3.363281 7.5-7.5 7.5s-7.5-3.363281-7.5-7.5c0-4.132812 3.363281-7.5 7.5-7.5s7.5 3.367188 7.5 7.5zm0 0"/></svg>